HIERARCHY
ROOT Hips
{
	OFFSET 0.000000 0.000000 0.000000 
	CHANNELS 6 Xposition Yposition Zposition Yrotation Zrotation Xrotation 
	JOINT Lumbar
	{
		OFFSET 0.000000 0.000000 0.000000 
		CHANNELS 3 Zrotation Xrotation Yrotation
		JOINT Neck
		{
			OFFSET 0.000000 0.445665 0.000000 
			CHANNELS 3 Zrotation Xrotation Yrotation
			End Site
			{
				OFFSET 0.000000 0.227535 0.000000 
			}
		}
		JOINT RightShoulder
		{
			OFFSET 0.019635 0.377685 0.194865 
			CHANNELS 3 Zrotation Xrotation Yrotation
			JOINT RightElbow
			{
				OFFSET 0.000000 -0.243375 0.000000 
				CHANNELS 2 Zrotation Yrotation
				JOINT RightWrist
				{
					OFFSET 0.000000 -0.264825 0.000000 
					CHANNELS 2 Zrotation Xrotation
					End Site
					{
						OFFSET 0.006600 -0.176220 0.000990 
					}
				}
			}
		}
		JOINT LeftShoulder
		{
			OFFSET 0.019635 0.377685 -0.194865 
			CHANNELS 3 Zrotation Xrotation Yrotation
			JOINT LeftElbow
			{
				OFFSET 0.000000 -0.243375 0.000000 
				CHANNELS 2 Zrotation Yrotation
				JOINT LeftWrist
				{
					OFFSET 0.000000 -0.264825 0.000000 
					CHANNELS 2 Zrotation Xrotation
					End Site
					{
						OFFSET 0.006600 -0.176220 -0.000990 
					}
				}
			}
		}
	}
	JOINT RightHip
	{
		OFFSET 0.052140 -0.069960 0.075570 
		CHANNELS 3 Zrotation Xrotation Yrotation
		JOINT RightKnee
		{
			OFFSET 0.000000 -0.402270 0.000000 
			CHANNELS 1 Zrotation
			JOINT RightAnkle
			{
				OFFSET 0.000000 -0.404085 0.000000 
				CHANNELS 3 Zrotation Xrotation Yrotation
				End Site
				{
					OFFSET 0.204105 -0.089430 0.008415 
				}
			}
		}
	}
	JOINT LeftHip
	{
		OFFSET 0.052140 -0.069960 -0.075570 
		CHANNELS 3 Zrotation Xrotation Yrotation
		JOINT LeftKnee
		{
			OFFSET 0.000000 -0.402270 0.000000 
			CHANNELS 1 Zrotation
			JOINT LeftAnkle
			{
				OFFSET 0.000000 -0.404085 0.000000 
				CHANNELS 3 Zrotation Xrotation Yrotation
				End Site
				{
					OFFSET 0.204105 -0.089430 -0.008415 
				}
			}
		}
	}
}
MOTION
Frames: 34
Frame Time: 0.02
0.00025 9e-05 -1e-05 19.61223 -29.73171 -5.56684 50.06025 1.43896 -2.0401 1.75293 0.57676 -0.40296 -18.84711 -7.11544 -15.21745 28.81962 125.07882 13.62064 6.20766 -22.26875 13.2478 -2.191 46.28707 -125.18404 21.79158 -3.62014 43.76992 1.52546 -1.81076 -19.03658 -6.30249 -3.82523 -2.63044 46.53585 3.3993 6.56797 -24.96014 -6.11279 2.46897 1.89392
0.00022 8e-05 -4e-05 19.57663 -29.74355 -5.56423 50.04754 1.45123 -2.03551 1.75352 0.59638 -0.4033 -18.78434 -7.07696 -15.17722 28.80993 125.02397 13.60809 6.19904 -22.33798 12.56561 -1.22108 46.28611 -126.85598 22.22863 -3.99791 43.7847 1.45162 -2.23071 -19.0394 -6.29123 -3.7754 -2.60044 46.555 3.35768 6.37931 -24.96535 -6.11679 2.49405 1.90755
0.00018 8e-05 -8e-05 19.54106 -29.75536 -5.56163 50.03484 1.46351 -2.03086 1.75403 0.61602 -0.40364 -18.72164 -7.03831 -15.13817 28.80016 124.9716 13.59602 6.19099 -22.40731 11.88567 -0.2551 46.28569 -128.52214 22.66412 -4.37425 43.79943 1.37799 -2.64951 -19.04222 -6.28 -3.72571 -2.57052 46.57408 3.3162 6.19118 -24.97054 -6.12077 2.51907 1.92114
0.00015 7e-05 -0.00011 19.50556 -29.76717 -5.55903 50.02216 1.47574 -2.02628 1.75462 0.63559 -0.40398 -18.65903 -6.99986 -15.09842 28.79048 124.9178 13.58371 6.18257 -22.47635 11.20552 0.71182 46.28475 -130.18919 23.09992 -4.75085 43.81416 1.30437 -3.0682 -19.04503 -6.26877 -3.67603 -2.54062 46.59317 3.27472 6.00309 -24.97572 -6.12476 2.54407 1.93472
0.00012 6e-05 -0.00014 19.47006 -29.77902 -5.55641 50.00949 1.48795 -2.02177 1.75529 0.65511 -0.40433 -18.59643 -6.96182 -15.0566 28.7809 124.85927 13.5704 6.17314 -22.54526 10.52334 1.68266 46.28327 -131.86125 23.53703 -5.12886 43.82893 1.23055 -3.48793 -19.04785 -6.25751 -3.62624 -2.51064 46.61232 3.2331 5.8145 -24.98092 -6.12876 2.56911 1.94833
9e-05 5e-05 -0.00018 19.43435 -29.79073 -5.55384 49.99674 1.50037 -2.01679 1.75544 0.67499 -0.40467 -18.53355 -6.92198 -15.02306 28.77076 124.81901 13.56072 6.16784 -22.61551 9.84828 2.63818 46.28519 -133.51438 23.96891 -5.50161 43.84361 1.15732 -3.90476 -19.05067 -6.24633 -3.57674 -2.48084 46.63125 3.19189 5.62734 -24.98608 -6.13272 2.59407 1.96188
6e-05 4e-05 -0.00021 19.39913 -29.80271 -5.55119 49.98415 1.51234 -2.01282 1.75672 0.69411 -0.40501 -18.47119 -6.88543 -14.97423 28.76176 124.74577 13.54469 6.15488 -22.68275 9.159 3.62438 46.27975 -135.20628 24.41167 -5.88482 43.85844 1.08297 -4.32702 -19.05348 -6.23502 -3.52671 -2.45071 46.65061 3.14992 5.43754 -24.99132 -6.13674 2.61918 1.97553
3e-05 3e-05 -0.00024 19.36339 -29.81444 -5.5486 49.97142 1.52477 -2.00784 1.75684 0.71395 -0.40535 -18.40855 -6.84652 -14.93709 28.75167 124.69616 13.53283 6.14779 -22.75322 8.484 4.58064 46.28204 -136.85784 24.84289 -6.25783 43.87314 1.00967 -4.74416 -19.0563 -6.22382 -3.47717 -2.42089 46.66957 3.10863 5.25008 -24.99648 -6.14072 2.64416 1.9891
-0 2e-05 -0.00028 19.32724 -29.82588 -5.54615 49.95847 1.53758 -2.0019 1.75597 0.73465 -0.40569 -18.34472 -6.80198 -14.924 28.74041 124.70275 13.53283 6.15273 -22.8259 7.82154 5.50707 46.29014 -138.47893 25.26612 -6.62068 43.88764 0.93755 -5.15568 -19.05914 -6.21278 -3.4282 -2.39143 46.68807 3.06825 5.06577 -25.00156 -6.14463 2.66896 2.00253
-4e-05 1e-05 -0.00031 19.29412 -29.83901 -5.54309 49.94666 1.54763 -2.00232 1.76209 0.75035 -0.40604 -18.28522 -6.78158 -14.80191 28.73636 124.46812 13.48492 6.10307 -22.88064 7.07214 6.62549 46.25388 -140.332 25.75373 -7.04896 43.90319 0.85833 -5.60149 -19.06189 -6.20086 -3.37589 -2.35984 46.70929 3.02286 4.86419 -25.00718 -6.14888 2.69473 2.01665
-6e-05 1e-05 -0.00034 19.25422 -29.84857 -5.5412 49.93252 1.56387 -1.98879 1.75264 0.77662 -0.40638 -18.21821 -6.71557 -14.89087 28.71681 124.68973 13.52508 6.15919 -22.97654 6.51564 7.32588 46.31812 -141.65935 26.09375 -7.33471 43.91658 0.7943 -5.97367 -19.06481 -6.19081 -3.33064 -2.33278 46.72474 2.98791 4.69854 -25.01161 -6.15243 2.7185 2.02938
-5e-05 2e-05 -0.00033 19.19869 -29.84823 -5.54339 49.91108 1.59449 -1.94097 1.70648 0.83177 -0.40666 -18.11683 -6.47765 -15.72755 28.65642 126.63078 13.92185 6.58938 -23.16085 6.41523 6.97809 46.60557 -141.83905 26.12547 -7.26373 43.92349 0.77061 -6.15301 -19.06836 -6.1858 -3.30471 -2.31796 46.72445 2.9829 4.63656 -25.0131 -6.15392 2.73629 2.03782
-2e-05 5e-05 -0.0003 19.13578 -29.84429 -5.54658 49.88745 1.6319 -1.87841 1.64345 0.89746 -0.40697 -18.01027 -6.20141 -16.74996 28.57997 128.95859 14.3897 7.11275 -23.39195 6.52152 6.19513 47.00443 -141.4441 25.99399 -7.04426 43.92832 0.76237 -6.25701 -19.07206 -6.18267 -3.28587 -2.30771 46.71834 2.98816 4.60986 -25.01335 -6.15475 2.75216 2.04497
-0 7e-05 -0.00028 19.07432 -29.84207 -5.54878 49.86539 1.66779 -1.81998 1.58436 0.95851 -0.40727 -17.91536 -5.97476 -17.57086 28.50995 130.78464 14.74493 7.53552 -23.6165 6.58176 5.54292 47.38569 -141.10932 25.87029 -6.86898 43.93448 0.748 -6.38914 -19.07558 -6.17874 -3.26384 -2.2955 46.71485 2.98783 4.56349 -25.01398 -6.15597 2.76926 2.05306
1e-05 9e-05 -0.00028 19.02094 -29.83958 -5.55329 49.84087 1.69668 -1.77234 1.54147 1.01935 -0.40746 -17.78205 -5.61708 -18.86572 28.44425 133.92483 15.42313 8.1941 -23.7753 6.44258 5.16062 47.62468 -141.58916 26.01447 -6.78754 43.93909 0.73008 -6.54574 -19.07956 -6.17461 -3.24175 -2.28288 46.71152 2.99127 4.53187 -25.01541 -6.1568 2.78489 2.05967
4e-05 0.00012 -0.00023 18.94892 -29.83671 -5.55315 49.82096 1.74224 -1.69876 1.4602 1.08261 -0.40802 -17.72644 -5.51712 -19.24348 28.36489 134.4984 15.46587 8.39653 -24.0868 6.76486 4.12819 48.19026 -140.27708 25.57716 -6.48071 43.94633 0.72297 -6.63495 -19.08265 -6.17132 -3.22139 -2.27211 46.70639 2.98944 4.47872 -25.01486 -6.1583 2.80307 2.06902
0.00011 0.0002 -8e-05 18.82789 -29.8343 -5.54078 49.81432 1.82806 -1.55689 1.28258 1.15438 -0.40842 -17.89613 -6.19194 -16.8144 28.25894 127.19947 13.55848 7.20313 -24.7692 8.33622 1.27804 49.59629 -133.80365 23.44373 -5.54271 43.96205 0.74405 -6.54435 -19.08282 -6.1699 -3.20468 -2.26593 46.69847 2.96928 4.35086 -25.00934 -6.16169 2.82913 2.0865
0.0002 0.0003 0.00012 18.68838 -29.8315 -5.52352 49.81232 1.93115 -1.38944 1.06596 1.22736 -0.40939 -18.14266 -7.11825 -13.49555 28.13841 117.42473 11.0404 5.56721 -25.61137 10.36073 -2.18698 51.33281 -125.61076 20.75457 -4.39117 43.9803 0.77507 -6.39077 -19.0822 -6.16925 -3.18936 -2.26134 46.68878 2.94372 4.20161 -25.00187 -6.16581 2.85775 2.10672
0.00028 0.00039 0.00029 18.55673 -29.82851 -5.50796 49.8083 2.02911 -1.23392 0.8635 1.29697 -0.41089 -18.34751 -7.89311 -10.73811 28.01985 109.24673 8.9211 4.21006 -26.40566 12.16016 -5.28597 52.94119 -118.44015 18.40613 -3.36743 43.99695 0.80014 -6.27405 -19.08219 -6.16819 -3.173 -2.25558 46.67943 2.92136 4.06614 -24.99513 -6.16966 2.88499 2.12555
0.00035 0.00047 0.00046 18.42653 -29.82706 -5.4947 49.80417 2.11603 -1.07672 0.67518 1.37905 -0.40913 -18.57975 -8.82005 -7.33686 27.9205 99.12528 6.30035 2.53405 -27.0956 14.04477 -8.76642 54.46309 -110.24171 15.68214 -2.20995 44.01558 0.83181 -6.1201 -19.08101 -6.16741 -3.15859 -2.2518 46.67191 2.89601 3.91366 -24.98889 -6.17318 2.91314 2.14504
0.00044 0.00057 0.00066 18.28975 -29.82221 -5.47542 49.80095 2.22971 -0.917 0.44873 1.43507 -0.41421 -18.77445 -9.49479 -5.04688 27.77774 92.4161 4.56811 1.40864 -28.04223 15.86048 -11.59185 56.23871 -103.77183 13.60756 -1.28064 44.03051 0.85189 -6.02949 -19.08219 -6.16624 -3.14038 -2.24428 46.66014 2.87574 3.79249 -24.9813 -6.17761 2.93993 2.16371
0.0006 0.00071 0.00091 18.13316 -29.80973 -5.44116 49.80307 2.41501 -0.75783 0.12413 1.42065 -0.43862 -18.8352 -9.37402 -6.18348 27.51746 96.10242 5.52495 1.97394 -29.64222 17.34339 -12.46242 58.66501 -102.59457 13.48858 -1.04807 44.03661 0.83745 -6.1314 -19.08898 -6.16366 -3.111 -2.22551 46.63843 2.86841 3.75044 -24.9696 -6.18425 2.9633 2.18045
0.00078 0.00087 0.00118 17.97196 -29.79376 -5.40089 49.80536 2.62605 -0.59683 -0.23652 1.37943 -0.46976 -18.85671 -8.99768 -8.44449 27.21256 103.23849 7.38081 3.09671 -31.4983 18.74627 -12.64933 61.32996 -103.19872 14.03808 -1.05021 44.03872 0.81099 -6.299 -19.09835 -6.16072 -3.07777 -2.20299 46.61254 2.86678 3.7426 -24.95686 -6.19185 2.98507 2.19611
0.00095 0.00102 0.00144 17.81671 -29.77811 -5.36307 49.8048 2.82422 -0.43594 -0.57957 1.34946 -0.49742 -18.90495 -8.76354 -10.0947 26.93122 108.5514 8.76795 3.92288 -33.24703 20.2054 -13.14451 63.86348 -102.92798 14.26525 -0.93664 44.04112 0.78995 -6.43569 -19.10725 -6.15795 -3.04649 -2.18251 46.58736 2.86403 3.72744 -24.94507 -6.19906 3.00696 2.21161
0.00111 0.00117 0.00168 17.64379 -29.767 -5.32635 49.81551 3.02872 -0.27725 -0.93095 1.3241 -0.52693 -18.92226 -8.4293 -12.12528 26.64273 114.85331 10.38698 4.91565 -34.96138 21.59622 -13.67263 66.50129 -102.8808 14.55178 -0.85516 44.0493 0.76926 -6.57536 -19.11319 -6.15494 -3.01442 -2.16068 46.56605 2.85485 3.6777 -24.93087 -6.20594 3.03147 2.2299
0.00129 0.00132 0.00198 17.50775 -29.7466 -5.28589 49.80348 3.22498 -0.11382 -1.27075 1.28196 -0.55411 -18.98874 -8.23813 -13.65482 26.34966 119.95062 11.74548 5.70037 -36.8084 23.10478 -13.9605 68.97965 -102.80323 14.87991 -0.76358 44.04541 0.74509 -6.72431 -19.12585 -6.15263 -2.98307 -2.14075 46.53706 2.86055 3.70729 -24.92189 -6.2139 3.05015 2.24217
0.0015 0.00144 0.00242 17.46701 -29.6926 -5.23734 49.72177 3.40026 0.06163 -1.58945 1.20703 -0.57382 -19.24362 -8.51614 -13.41908 26.13495 120.85616 12.15707 5.77004 -38.93464 24.94968 -13.76047 70.9086 -102.30769 15.16591 -0.60417 44.00082 0.71196 -6.8914 -19.15709 -6.1499 -2.95466 -2.12703 46.47597 2.90505 3.95673 -24.9237 -6.22309 3.05288 2.23731
0.00171 0.00155 0.00292 17.46524 -29.6308 -5.18515 49.6182 3.56494 0.24181 -1.8916 1.11502 -0.59087 -19.54169 -8.94364 -12.663 25.90394 120.44746 12.2789 5.61466 -41.18672 26.91329 -13.33888 72.67492 -101.71292 15.47 -0.42484 43.94555 0.6761 -7.06429 -19.19486 -6.14826 -2.92714 -2.11538 46.40925 2.9644 4.28293 -24.93141 -6.23358 3.04983 2.22654
0.00191 0.00166 0.00341 17.45056 -29.57859 -5.1341 49.52942 3.72886 0.42008 -2.18796 1.02599 -0.60873 -19.79042 -9.29369 -12.22168 25.62585 120.66606 12.5427 5.56651 -43.39972 28.82803 -13.00853 74.54944 -101.10156 15.76726 -0.24361 43.90092 0.64295 -7.22922 -19.22924 -6.14779 -2.89914 -2.10273 46.35326 3.01773 4.56848 -24.93913 -6.24453 3.04956 2.21894
0.00213 0.00178 0.00384 17.41479 -29.50159 -5.08486 49.4211 3.91651 0.59729 -2.54091 0.95542 -0.62844 -20.16012 -9.67469 -11.49537 25.56948 120.87375 12.79822 5.51422 -45.55597 30.72628 -12.68927 76.29475 -100.79878 16.09107 -0.11454 43.83264 0.60324 -7.41888 -19.26558 -6.14056 -2.87112 -2.09009 46.26371 3.0687 4.8808 -24.93597 -6.25122 3.04858 2.20924
0.00233 0.00189 0.0044 17.43305 -29.47337 -5.03123 49.34708 4.05279 0.77795 -2.77271 0.84366 -0.64363 -20.29257 -10.03058 -11.21593 25.05651 120.75106 12.98529 5.41292 -47.84358 32.67872 -12.30983 78.25861 -99.82286 16.34339 0.12828 43.81 0.57662 -7.55753 -19.29925 -6.14734 -2.84363 -2.0781 46.2414 3.12738 5.15359 -24.95624 -6.26686 3.04777 2.20254
0.00246 0.00202 0.00526 17.58437 -29.59072 -4.96482 49.38365 4.04166 0.96559 -2.66392 0.61399 -0.64648 -19.7248 -10.27639 -12.36655 23.21494 119.98645 13.09524 5.202 -50.57342 34.82887 -11.76377 80.93698 -96.86813 16.49581 0.70324 43.92611 0.58741 -7.55466 -19.3248 -6.1952 -2.81547 -2.06637 46.41817 3.2093 5.31205 -25.04535 -6.30871 3.04854 2.20559
0.00257 0.00215 0.00623 17.78987 -29.75583 -4.89434 49.45361 3.98052 1.1568 -2.4354 0.34512 -0.64493 -18.92306 -10.49368 -13.96559 20.92894 118.92258 13.13404 4.95131 -53.40732 37.01372 -11.17882 83.8245 -93.25781 16.55539 1.38844 44.08674 0.6113 -7.50033 -19.34731 -6.25662 -2.78816 -2.05541 46.66065 3.29741 5.42561 -25.15682 -6.35918 3.04975 2.21185
0.00268 0.00228 0.00716 17.97508 -29.89313 -4.82687 49.5013 3.94757 1.3472 -2.26823 0.09984 -0.64573 -18.25175 -10.72817 -15.30974 18.89258 118.01794 13.17423 4.73648 -56.12234 39.13466 -10.65037 86.57067 -90.03314 16.5847 2.00985 44.22029 0.62899 -7.46807 -19.37061 -6.31007 -2.7618 -2.04485 46.86512 3.37896 5.55034 -25.25438 -6.40448 3.05102 2.21664
